<?xml version="1.0" encoding="UTF-8"?>
<svg xmlns="http://www.w3.org/2000/svg" viewBox="0 0 331.48 47.76">
  <g fill="#00684f">
    <g>
      <path d="M39.78,1.8v45.96h-.24L8.64,19.86l.18,26.1H0V.06h.36l30.84,28.32-.18-26.58h8.76Z"/>
      <path d="M51.51,12.72c2.02-3.48,4.76-6.25,8.22-8.31,3.46-2.06,7.21-3.09,11.25-3.09s7.79,1.03,11.25,3.09c3.46,2.06,6.22,4.83,8.28,8.31,2.06,3.48,3.09,7.22,3.09,11.22s-1.03,7.84-3.09,11.28c-2.06,3.44-4.82,6.17-8.28,8.19-3.46,2.02-7.21,3.03-11.25,3.03s-7.84-1.01-11.28-3.03c-3.44-2.02-6.17-4.75-8.19-8.19-2.02-3.44-3.03-7.2-3.03-11.28s1.01-7.74,3.03-11.22ZM59.31,31.02c1.22,2.16,2.88,3.87,4.98,5.13,2.1,1.26,4.43,1.89,6.99,1.89s4.74-.63,6.78-1.89c2.04-1.26,3.64-2.96,4.8-5.1,1.16-2.14,1.74-4.51,1.74-7.11s-.6-5.04-1.8-7.2c-1.2-2.16-2.83-3.87-4.89-5.13-2.06-1.26-4.35-1.89-6.87-1.89s-4.81.63-6.87,1.89c-2.06,1.26-3.69,2.97-4.89,5.13-1.2,2.16-1.8,4.56-1.8,7.2s.61,4.92,1.83,7.08Z"/>
      <path d="M126.12,45.96l-9.3-14.04h-5.82v14.04h-8.7V1.8h13.38c5.48,0,9.73,1.33,12.75,3.99,3.02,2.66,4.53,6.29,4.53,10.89,0,2.72-.57,5.27-1.71,7.65-1.14,2.38-2.89,4.25-5.25,5.61l10.26,16.02h-10.14ZM111,23.52h6.18c2.36,0,4.08-.69,5.16-2.07,1.08-1.38,1.62-2.87,1.62-4.47s-.46-3.13-1.38-4.59c-.92-1.46-2.7-2.19-5.34-2.19h-6.24v13.32Z"/>
      <path d="M188.94,0v45.96h-8.7v-21.06l-14.4,20.46h-.12l-13.86-19.14v19.74h-8.4V0h.06l22.38,31.74L188.82,0h.12Z"/>
    </g>
    <g>
      <path d="M215.23,41.67h-7.32l-1.8,4.32h-4.29l9.96-22.95h.24l9.96,22.95h-5.04l-1.71-4.32ZM213.79,38.01l-2.13-5.37-2.22,5.37h4.35Z"/>
      <path d="M242.77,23.91v4.2h-5.37v17.88h-4.35v-17.88h-5.16v-4.2h14.88Z"/>
      <path d="M257.32,23.91v22.08h-4.35v-22.08h4.35Z"/>
      <path d="M275.8,27.66c-.96,0-1.71.19-2.23.57-.53.38-.79.95-.79,1.71,0,.7.38,1.31,1.15,1.84.77.53,1.79,1.04,3.08,1.52,1.04.38,1.93.81,2.67,1.31.74.49,1.35,1.17,1.85,2.02.49.86.73,1.95.73,3.27,0,1.14-.3,2.19-.89,3.17s-1.45,1.74-2.59,2.31c-1.14.57-2.5.86-4.08.86-1.32,0-2.63-.2-3.93-.59-1.3-.39-2.51-.98-3.63-1.78l1.92-3.39c.76.56,1.63,1.02,2.61,1.38.98.36,1.86.54,2.64.54.92,0,1.72-.19,2.4-.58.68-.39,1.02-1.02,1.02-1.9,0-1.14-1.07-2.13-3.21-2.97-1.26-.5-2.31-.98-3.15-1.44-.84-.46-1.56-1.12-2.17-1.98-.61-.86-.92-1.94-.92-3.24,0-1.9.62-3.43,1.88-4.59,1.25-1.16,2.91-1.79,5-1.89,1.64,0,3.01.19,4.11.56,1.1.37,2.17.9,3.21,1.58l-1.65,3.33c-1.92-1.06-3.59-1.59-5.01-1.59Z"/>
      <path d="M299.29,27.66c-.96,0-1.71.19-2.23.57-.53.38-.79.95-.79,1.71,0,.7.38,1.31,1.15,1.84.77.53,1.79,1.04,3.08,1.52,1.04.38,1.93.81,2.67,1.31.74.49,1.35,1.17,1.85,2.02.49.86.73,1.95.73,3.27,0,1.14-.3,2.19-.89,3.17s-1.45,1.74-2.59,2.31c-1.14.57-2.5.86-4.08.86-1.32,0-2.63-.2-3.93-.59-1.3-.39-2.51-.98-3.63-1.78l1.92-3.39c.76.56,1.63,1.02,2.61,1.38.98.36,1.86.54,2.64.54.92,0,1.72-.19,2.4-.58.68-.39,1.02-1.02,1.02-1.9,0-1.14-1.07-2.13-3.21-2.97-1.26-.5-2.31-.98-3.15-1.44-.84-.46-1.56-1.12-2.17-1.98-.61-.86-.92-1.94-.92-3.24,0-1.9.62-3.43,1.88-4.59,1.25-1.16,2.91-1.79,5-1.89,1.64,0,3.01.19,4.11.56,1.1.37,2.17.9,3.21,1.58l-1.65,3.33c-1.92-1.06-3.59-1.59-5.01-1.59Z"/>
      <path d="M331.06,23.91v4.2h-10.71v4.71h9.48v4.2h-9.48v4.77h11.13v4.2h-15.48v-22.08h15.06Z"/>
    </g>
  </g>
</svg>