<?xml version="1.0" encoding="UTF-8"?>
<svg xmlns="http://www.w3.org/2000/svg" viewBox="0 0 333.36 48.12">
  <g>
    <g>
      <path d="M213.88,8.15c.71.38,1.28.91,1.69,1.6s.62,1.49.62,2.39c0,1.12-.26,2.16-.77,3.12-.51.96-1.25,1.73-2.21,2.3-.96.57-2.07.86-3.35.86-.46,0-.94-.08-1.43-.23-.49-.15-.92-.36-1.29-.62l-.6,5.41h-3.2l1.91-15.11h2.76l.05.87c1.38-.77,2.54-1.15,3.47-1.15.84,0,1.62.19,2.33.56ZM211.46,15.31c.48-.28.84-.66,1.09-1.14.25-.48.38-.98.38-1.52,0-.74-.25-1.34-.76-1.81-.51-.47-1.1-.7-1.77-.7-.52,0-.99.12-1.42.37-.42.25-.82.63-1.18,1.15l-.3,2.46c.43,1.07,1.19,1.61,2.28,1.61.64,0,1.2-.14,1.68-.43Z" style="fill: #eb5c81;"/>
      <path d="M227.45,8.45c.56.56.8,1.28.72,2.17l-.92,7.52h-3.22l.76-6.33c.08-.98-.35-1.47-1.29-1.47-.74,0-1.37.34-1.9,1.03-.53.69-.85,1.58-.98,2.67l-.51,4.09h-3.22l2.21-18.15h3.15l-1.15,9.57c.44-.6,1.02-1.07,1.71-1.43.7-.35,1.48-.53,2.36-.53.95,0,1.71.28,2.27.84Z" style="fill: #eb5c81;"/>
      <path d="M232.24,17.88c-.85-.36-1.56-.91-2.13-1.66s-.85-1.67-.85-2.77c0-.9.2-1.8.6-2.69s1.05-1.63,1.94-2.23c.9-.6,2.04-.9,3.42-.9.92,0,1.8.2,2.64.59.84.39,1.53.96,2.06,1.71.53.75.79,1.64.79,2.67,0,.8-.18,1.64-.54,2.53-.36.89-.98,1.66-1.86,2.31-.88.65-2.05.98-3.51.98-.86,0-1.71-.18-2.56-.54ZM236.83,14.82c.41-.64.62-1.33.62-2.08,0-.94-.25-1.58-.76-1.94-.51-.36-1.04-.54-1.59-.54-.58,0-1.07.16-1.46.47-.39.31-.68.71-.86,1.17-.18.47-.28.93-.28,1.39,0,.92.25,1.56.76,1.93.51.37,1.05.55,1.63.55.87,0,1.52-.32,1.93-.95Z" style="fill: #eb5c81;"/>
      <path d="M247.29,3.68l-.53,4.37h2.44l-.3,2.51h-2.44l-.92,7.59h-3.22l.92-7.59h-1.56l.3-2.51h1.56l.53-4.37h3.22Z" style="fill: #eb5c81;"/>
      <path d="M252.18,17.88c-.85-.36-1.56-.91-2.13-1.66-.57-.74-.85-1.67-.85-2.77,0-.9.2-1.8.6-2.69.4-.89,1.05-1.63,1.94-2.23.9-.6,2.04-.9,3.42-.9.92,0,1.8.2,2.65.59.84.39,1.53.96,2.06,1.71.53.75.79,1.64.79,2.67,0,.8-.18,1.64-.54,2.53-.36.89-.98,1.66-1.86,2.31-.88.65-2.05.98-3.51.98-.86,0-1.71-.18-2.56-.54ZM256.77,14.82c.41-.64.62-1.33.62-2.08,0-.94-.25-1.58-.76-1.94-.51-.36-1.04-.54-1.59-.54-.58,0-1.07.16-1.46.47-.39.31-.68.71-.86,1.17-.18.47-.28.93-.28,1.39,0,.92.25,1.56.76,1.93.51.37,1.05.55,1.63.55.87,0,1.52-.32,1.93-.95Z" style="fill: #eb5c81;"/>
      <path d="M273.95,8.1l-1.33,10.58c-.11.95-.45,1.77-1.02,2.45-.57.68-1.31,1.2-2.2,1.55-.89.35-1.86.53-2.9.53-.91,0-1.68-.1-2.33-.3-.65-.2-1.17-.43-1.56-.68-.39-.25-.83-.59-1.32-1l2.16-2.21c.46.43.94.77,1.44,1.01.5.24,1.14.37,1.92.37.69,0,1.29-.2,1.82-.61s.82-.97.9-1.69l.16-1.31c-.35.49-.82.89-1.42,1.18-.59.3-1.28.45-2.08.45-.94,0-1.78-.21-2.52-.62-.74-.41-1.33-1.02-1.76-1.81-.43-.79-.64-1.74-.64-2.84,0-.81.22-1.65.67-2.52.44-.87,1.11-1.59,2-2.17.89-.58,1.96-.87,3.2-.87.84,0,1.57.12,2.17.35s1.06.54,1.37.92l.32-.76h2.97ZM270.27,11.82c-.17-.51-.48-.9-.93-1.18s-1-.43-1.64-.43c-.71,0-1.3.15-1.77.46-.48.31-.82.69-1.05,1.14s-.33.9-.33,1.35c0,.84.24,1.5.72,1.96.48.46,1.16.69,2.04.69.52,0,1.01-.13,1.47-.39s.86-.64,1.2-1.13l.3-2.46Z" style="fill: #eb5c81;"/>
      <path d="M278.92,10.33c.34-.55.76-1.04,1.28-1.46s1.04-.74,1.56-.95.99-.32,1.39-.32l-.55,3.22c-.09-.02-.22-.02-.39-.02-.64,0-1.23.17-1.76.51-.53.34-.96.77-1.29,1.3-.33.53-.53,1.07-.59,1.62l-.48,3.93h-3.2l1.22-10.05h2.9l-.09,2.23Z" style="fill: #eb5c81;"/>
      <path d="M295.01,8.1l-1.22,10.05h-3.22l.14-1.24c-1.1,1.01-2.4,1.5-3.89,1.47-.67.02-1.33-.17-1.96-.56s-1.14-.96-1.54-1.71c-.4-.75-.6-1.62-.6-2.62s.25-1.95.74-2.85c.49-.9,1.17-1.64,2.02-2.2.86-.56,1.82-.84,2.9-.84.89,0,1.58.14,2.07.41.49.28.9.65,1.22,1.13l.35-1.03h2.99ZM291.33,11.82c-.12-.49-.39-.88-.8-1.17-.41-.29-.93-.44-1.54-.44-.66,0-1.21.15-1.64.44-.44.29-.76.66-.97,1.1-.21.44-.31.89-.31,1.33,0,.83.23,1.49.7,1.98s1.09.74,1.88.74c.46,0,.9-.13,1.31-.38s.77-.63,1.08-1.14l.3-2.46Z" style="fill: #eb5c81;"/>
      <path d="M305.88,8.15c.71.38,1.28.91,1.69,1.6s.62,1.49.62,2.39c0,1.12-.26,2.16-.77,3.12-.51.96-1.25,1.73-2.21,2.3-.96.57-2.07.86-3.35.86-.46,0-.94-.08-1.43-.23-.49-.15-.92-.36-1.29-.62l-.6,5.41h-3.2l1.91-15.11h2.76l.05.87c1.38-.77,2.54-1.15,3.47-1.15.84,0,1.62.19,2.33.56ZM303.46,15.31c.48-.28.84-.66,1.09-1.14.25-.48.38-.98.38-1.52,0-.74-.25-1.34-.76-1.81-.51-.47-1.1-.7-1.77-.7-.52,0-.99.12-1.42.37-.42.25-.82.63-1.18,1.15l-.3,2.46c.43,1.07,1.19,1.61,2.28,1.61.64,0,1.2-.14,1.68-.43Z" style="fill: #eb5c81;"/>
      <path d="M319.45,8.45c.56.56.8,1.28.72,2.17l-.92,7.52h-3.22l.76-6.33c.08-.98-.35-1.47-1.29-1.47-.74,0-1.37.34-1.9,1.03-.53.69-.85,1.58-.98,2.67l-.51,4.09h-3.22l2.21-18.15h3.15l-1.15,9.57c.44-.6,1.02-1.07,1.71-1.43.7-.35,1.48-.53,2.36-.53.95,0,1.71.28,2.27.84Z" style="fill: #eb5c81;"/>
      <path d="M333.36,8.1l-8.33,14.88h-3.1l3.08-5.36-3.47-9.52h3.61l1.91,5.93,3.4-5.93h2.9Z" style="fill: #eb5c81;"/>
    </g>
    <g>
      <path d="M39.78,2.16v45.96h-.24L8.64,20.22l.18,26.1H0V.42h.36l30.84,28.32-.18-26.58h8.76Z" style="fill: #00684f;"/>
      <path d="M51.51,13.08c2.02-3.48,4.76-6.25,8.22-8.31,3.46-2.06,7.21-3.09,11.25-3.09s7.79,1.03,11.25,3.09c3.46,2.06,6.22,4.83,8.28,8.31,2.06,3.48,3.09,7.22,3.09,11.22s-1.03,7.84-3.09,11.28c-2.06,3.44-4.82,6.17-8.28,8.19-3.46,2.02-7.21,3.03-11.25,3.03s-7.84-1.01-11.28-3.03c-3.44-2.02-6.17-4.75-8.19-8.19-2.02-3.44-3.03-7.2-3.03-11.28s1.01-7.74,3.03-11.22ZM59.31,31.38c1.22,2.16,2.88,3.87,4.98,5.13,2.1,1.26,4.43,1.89,6.99,1.89s4.74-.63,6.78-1.89c2.04-1.26,3.64-2.96,4.8-5.1,1.16-2.14,1.74-4.51,1.74-7.11s-.6-5.04-1.8-7.2c-1.2-2.16-2.83-3.87-4.89-5.13-2.06-1.26-4.35-1.89-6.87-1.89s-4.81.63-6.87,1.89c-2.06,1.26-3.69,2.97-4.89,5.13-1.2,2.16-1.8,4.56-1.8,7.2s.61,4.92,1.83,7.08Z" style="fill: #00684f;"/>
      <path d="M126.12,46.32l-9.3-14.04h-5.82v14.04h-8.7V2.16h13.38c5.48,0,9.73,1.33,12.75,3.99,3.02,2.66,4.53,6.29,4.53,10.89,0,2.72-.57,5.27-1.71,7.65-1.14,2.38-2.89,4.25-5.25,5.61l10.26,16.02h-10.14ZM111,23.88h6.18c2.36,0,4.08-.69,5.16-2.07,1.08-1.38,1.62-2.87,1.62-4.47s-.46-3.13-1.38-4.59c-.92-1.46-2.7-2.19-5.34-2.19h-6.24v13.32Z" style="fill: #00684f;"/>
      <path d="M188.94.36v45.96h-8.7v-21.06l-14.4,20.46h-.12l-13.86-19.14v19.74h-8.4V.36h.06l22.38,31.74L188.82.36h.12Z" style="fill: #00684f;"/>
    </g>
    <g>
      <path d="M215.36,42h-7.32l-1.8,4.32h-4.29l9.96-22.95h.24l9.96,22.95h-5.04l-1.71-4.32ZM213.92,38.34l-2.13-5.37-2.22,5.37h4.35Z" style="fill: #00684f;"/>
      <path d="M242.9,24.24v4.2h-5.37v17.88h-4.35v-17.88h-5.16v-4.2h14.88Z" style="fill: #00684f;"/>
      <path d="M257.45,24.24v22.08h-4.35v-22.08h4.35Z" style="fill: #00684f;"/>
      <path d="M275.93,27.99c-.96,0-1.71.19-2.23.57-.53.38-.79.95-.79,1.71,0,.7.38,1.31,1.15,1.84.77.53,1.79,1.04,3.08,1.52,1.04.38,1.93.81,2.67,1.31s1.35,1.17,1.85,2.02c.49.86.73,1.95.73,3.27,0,1.14-.29,2.19-.88,3.17s-1.46,1.74-2.59,2.31-2.5.86-4.08.86c-1.32,0-2.63-.2-3.93-.59-1.3-.39-2.51-.98-3.63-1.78l1.92-3.39c.76.56,1.63,1.02,2.61,1.38.98.36,1.86.54,2.64.54.92,0,1.72-.19,2.4-.58.68-.39,1.02-1.02,1.02-1.9,0-1.14-1.07-2.13-3.21-2.97-1.26-.5-2.31-.98-3.15-1.44-.84-.46-1.57-1.12-2.17-1.98-.61-.86-.92-1.94-.92-3.24,0-1.9.62-3.43,1.88-4.59,1.25-1.16,2.91-1.79,5-1.89,1.64,0,3.01.19,4.11.56,1.1.37,2.17.9,3.21,1.58l-1.65,3.33c-1.92-1.06-3.59-1.59-5.01-1.59Z" style="fill: #00684f;"/>
      <path d="M299.42,27.99c-.96,0-1.71.19-2.24.57s-.79.95-.79,1.71c0,.7.38,1.31,1.16,1.84.77.53,1.79,1.04,3.08,1.52,1.04.38,1.93.81,2.67,1.31.74.49,1.35,1.17,1.84,2.02s.74,1.95.74,3.27c0,1.14-.3,2.19-.89,3.17s-1.45,1.74-2.59,2.31c-1.14.57-2.5.86-4.08.86-1.32,0-2.63-.2-3.93-.59-1.3-.39-2.51-.98-3.63-1.78l1.92-3.39c.76.56,1.63,1.02,2.61,1.38.98.36,1.86.54,2.64.54.92,0,1.72-.19,2.4-.58s1.02-1.02,1.02-1.9c0-1.14-1.07-2.13-3.21-2.97-1.26-.5-2.31-.98-3.15-1.44-.84-.46-1.56-1.12-2.17-1.98-.61-.86-.92-1.94-.92-3.24,0-1.9.62-3.43,1.88-4.59,1.25-1.16,2.92-1.79,5-1.89,1.64,0,3.01.19,4.11.56,1.1.37,2.17.9,3.21,1.58l-1.65,3.33c-1.92-1.06-3.59-1.59-5.01-1.59Z" style="fill: #00684f;"/>
      <path d="M331.19,24.24v4.2h-10.71v4.71h9.48v4.2h-9.48v4.77h11.13v4.2h-15.48v-22.08h15.06Z" style="fill: #00684f;"/>
    </g>
  </g>
</svg>