<?xml version="1.0" encoding="UTF-8"?>
<svg xmlns="http://www.w3.org/2000/svg" viewBox="0 0 98.19 22.98">
  <g>
    <g>
      <path d="M10.17,8.15c.71.38,1.27.94,1.7,1.7.43.76.64,1.7.64,2.82,0,1.01-.25,1.96-.76,2.84s-1.21,1.59-2.12,2.12c-.91.53-1.92.79-3.06.79-.74,0-1.36-.11-1.87-.33s-.96-.54-1.35-.95l-.14,1.01H0L2.23,0h3.2l-1.06,8.79c.41-.35.92-.64,1.52-.86.6-.22,1.25-.33,1.96-.33.84,0,1.62.19,2.32.56ZM7.87,15.27c.46-.29.8-.66,1.02-1.09.22-.44.33-.87.33-1.3,0-.87-.23-1.55-.69-2.04-.46-.48-1.08-.72-1.86-.72-.6,0-1.12.14-1.58.43-.45.28-.81.68-1.07,1.18l-.3,2.32c.48,1.1,1.3,1.66,2.46,1.66.66,0,1.22-.15,1.68-.44Z" style="fill: #eb5c81;"/>
      <path d="M31.12,8.1l-1.22,10.05h-3.22l.14-1.24c-1.1,1.01-2.4,1.5-3.89,1.47-.67.02-1.33-.17-1.96-.56s-1.14-.96-1.54-1.71c-.4-.75-.6-1.62-.6-2.62s.25-1.95.74-2.85c.49-.9,1.17-1.64,2.02-2.2.86-.56,1.82-.84,2.9-.84.89,0,1.58.14,2.07.41.49.28.9.65,1.22,1.13l.35-1.03h2.99ZM27.44,11.82c-.12-.49-.39-.88-.8-1.17-.41-.29-.93-.44-1.54-.44-.66,0-1.21.15-1.64.44-.44.29-.76.66-.97,1.1-.21.44-.31.89-.31,1.33,0,.83.23,1.49.7,1.98s1.09.74,1.88.74c.46,0,.9-.13,1.31-.38s.77-.63,1.08-1.14l.3-2.46Z" style="fill: #eb5c81;"/>
      <path d="M44.94,12.26l3.22,5.89h-3.75l-1.96-4.19-.97.69-.44,3.5h-3.22L40.04,0h3.22l-1.38,11.36,5.22-3.52,1.72,1.73-3.89,2.69Z" style="fill: #eb5c81;"/>
      <path d="M62.21,15.13l1.13,2.48c-.51.25-1.04.44-1.61.57-.57.14-1.1.21-1.61.21-1.7,0-3.04-.44-4.02-1.31-.98-.87-1.47-2.17-1.47-3.89,0-.86.21-1.72.63-2.58.42-.86,1.08-1.57,1.97-2.14.89-.57,2.01-.85,3.36-.85s2.54.38,3.5,1.13,1.55,2.11,1.79,4.07l-7.52,1.86c.25.35.56.61.93.76.38.15.77.23,1.18.23.48,0,1.06-.18,1.75-.55ZM58.5,10.92c-.44.52-.66,1.16-.66,1.91v.07l4.58-1.2c-.12-.49-.36-.87-.71-1.15-.35-.28-.77-.41-1.24-.41-.87,0-1.53.26-1.97.78Z" style="fill: #eb5c81;"/>
      <path d="M76.17,10.33c.34-.55.76-1.04,1.28-1.46s1.04-.74,1.56-.95.99-.32,1.39-.32l-.55,3.22c-.09-.02-.22-.02-.39-.02-.64,0-1.23.17-1.76.51-.53.34-.96.77-1.29,1.3-.33.53-.53,1.07-.59,1.62l-.48,3.93h-3.2l1.22-10.05h2.9l-.09,2.23Z" style="fill: #eb5c81;"/>
      <path d="M98.19,8.1l-8.33,14.88h-3.11l3.08-5.36-3.47-9.52h3.61l1.91,5.93,3.4-5.93h2.9Z" style="fill: #eb5c81;"/>
    </g>
  </g>
</svg>