<?xml version="1.0" encoding="UTF-8"?>
<svg xmlns="http://www.w3.org/2000/svg" viewBox="0 0 331.61 48.12">
  <g>
    <g>
      <path d="M214.12,8.15c.71.38,1.27.94,1.7,1.7.43.76.64,1.7.64,2.82,0,1.01-.25,1.96-.76,2.84s-1.21,1.59-2.12,2.12c-.91.53-1.92.79-3.06.79-.74,0-1.36-.11-1.87-.33s-.96-.54-1.35-.95l-.14,1.01h-3.22l2.23-18.15h3.2l-1.06,8.79c.41-.35.92-.64,1.52-.86.6-.22,1.25-.33,1.96-.33.84,0,1.62.19,2.32.56ZM211.82,15.27c.46-.29.8-.66,1.02-1.09.22-.44.33-.87.33-1.3,0-.87-.23-1.55-.69-2.04-.46-.48-1.08-.72-1.86-.72-.6,0-1.12.14-1.58.43-.45.28-.81.68-1.07,1.18l-.3,2.32c.48,1.1,1.3,1.66,2.46,1.66.66,0,1.22-.15,1.68-.44Z" style="fill: #eb5c81;"/>
      <path d="M235.08,8.1l-1.22,10.05h-3.22l.14-1.24c-1.1,1.01-2.4,1.5-3.89,1.47-.67.02-1.33-.17-1.96-.56s-1.14-.96-1.54-1.71c-.4-.75-.6-1.62-.6-2.62s.25-1.95.74-2.85c.49-.9,1.17-1.64,2.02-2.2.86-.56,1.82-.84,2.9-.84.89,0,1.58.14,2.07.41.49.28.9.65,1.22,1.13l.35-1.03h2.99ZM231.4,11.82c-.12-.49-.39-.88-.8-1.17-.41-.29-.93-.44-1.54-.44-.66,0-1.21.15-1.64.44-.44.29-.76.66-.97,1.1-.21.44-.31.89-.31,1.33,0,.83.23,1.49.7,1.98s1.09.74,1.88.74c.46,0,.9-.13,1.31-.38s.77-.63,1.08-1.14l.3-2.46Z" style="fill: #eb5c81;"/>
      <path d="M248.9,12.26l3.22,5.89h-3.75l-1.96-4.19-.97.69-.44,3.5h-3.22l2.21-18.15h3.22l-1.38,11.36,5.22-3.52,1.72,1.73-3.89,2.69Z" style="fill: #eb5c81;"/>
      <path d="M266.17,15.13l1.13,2.48c-.51.25-1.04.44-1.61.57-.57.14-1.1.21-1.61.21-1.7,0-3.04-.44-4.02-1.31-.98-.87-1.47-2.17-1.47-3.89,0-.86.21-1.72.63-2.58.42-.86,1.08-1.57,1.97-2.14.89-.57,2.01-.85,3.36-.85s2.54.38,3.5,1.13,1.55,2.11,1.79,4.07l-7.52,1.86c.25.35.56.61.93.76.38.15.77.23,1.18.23.48,0,1.06-.18,1.75-.55ZM262.46,10.92c-.44.52-.66,1.16-.66,1.91v.07l4.58-1.2c-.12-.49-.36-.87-.71-1.15-.35-.28-.77-.41-1.24-.41-.87,0-1.53.26-1.97.78Z" style="fill: #eb5c81;"/>
      <path d="M280.13,10.33c.34-.55.76-1.04,1.28-1.46s1.04-.74,1.56-.95.99-.32,1.39-.32l-.55,3.22c-.09-.02-.22-.02-.39-.02-.64,0-1.23.17-1.76.51-.53.34-.96.77-1.29,1.3-.33.53-.53,1.07-.59,1.62l-.48,3.93h-3.2l1.22-10.05h2.9l-.09,2.23Z" style="fill: #eb5c81;"/>
      <path d="M302.15,8.1l-8.33,14.88h-3.11l3.08-5.36-3.47-9.52h3.61l1.91,5.93,3.4-5.93h2.9Z" style="fill: #eb5c81;"/>
    </g>
    <g>
      <path d="M39.78,2.16v45.96h-.24L8.64,20.22l.18,26.1H0V.42h.36l30.84,28.32-.18-26.58h8.76Z" style="fill: #00684f;"/>
      <path d="M51.51,13.08c2.02-3.48,4.76-6.25,8.22-8.31,3.46-2.06,7.21-3.09,11.25-3.09s7.79,1.03,11.25,3.09c3.46,2.06,6.22,4.83,8.28,8.31,2.06,3.48,3.09,7.22,3.09,11.22s-1.03,7.84-3.09,11.28c-2.06,3.44-4.82,6.17-8.28,8.19-3.46,2.02-7.21,3.03-11.25,3.03s-7.84-1.01-11.28-3.03c-3.44-2.02-6.17-4.75-8.19-8.19-2.02-3.44-3.03-7.2-3.03-11.28s1.01-7.74,3.03-11.22ZM59.31,31.38c1.22,2.16,2.88,3.87,4.98,5.13,2.1,1.26,4.43,1.89,6.99,1.89s4.74-.63,6.78-1.89c2.04-1.26,3.64-2.96,4.8-5.1,1.16-2.14,1.74-4.51,1.74-7.11s-.6-5.04-1.8-7.2c-1.2-2.16-2.83-3.87-4.89-5.13-2.06-1.26-4.35-1.89-6.87-1.89s-4.81.63-6.87,1.89c-2.06,1.26-3.69,2.97-4.89,5.13-1.2,2.16-1.8,4.56-1.8,7.2s.61,4.92,1.83,7.08Z" style="fill: #00684f;"/>
      <path d="M126.12,46.32l-9.3-14.04h-5.82v14.04h-8.7V2.16h13.38c5.48,0,9.73,1.33,12.75,3.99,3.02,2.66,4.53,6.29,4.53,10.89,0,2.72-.57,5.27-1.71,7.65-1.14,2.38-2.89,4.25-5.25,5.61l10.26,16.02h-10.14ZM111,23.88h6.18c2.36,0,4.08-.69,5.16-2.07,1.08-1.38,1.62-2.87,1.62-4.47s-.46-3.13-1.38-4.59c-.92-1.46-2.7-2.19-5.34-2.19h-6.24v13.32Z" style="fill: #00684f;"/>
      <path d="M188.94.36v45.96h-8.7v-21.06l-14.4,20.46h-.12l-13.86-19.14v19.74h-8.4V.36h.06l22.38,31.74L188.82.36h.12Z" style="fill: #00684f;"/>
    </g>
    <g>
      <path d="M215.36,42h-7.32l-1.8,4.32h-4.29l9.96-22.95h.24l9.96,22.95h-5.04l-1.71-4.32ZM213.92,38.34l-2.13-5.37-2.22,5.37h4.35Z" style="fill: #00684f;"/>
      <path d="M242.9,24.24v4.2h-5.37v17.88h-4.35v-17.88h-5.16v-4.2h14.88Z" style="fill: #00684f;"/>
      <path d="M257.45,24.24v22.08h-4.35v-22.08h4.35Z" style="fill: #00684f;"/>
      <path d="M275.93,27.99c-.96,0-1.71.19-2.24.57s-.79.95-.79,1.71c0,.7.38,1.31,1.16,1.84.77.53,1.79,1.04,3.08,1.52,1.04.38,1.93.81,2.67,1.31.74.49,1.35,1.17,1.84,2.02s.74,1.95.74,3.27c0,1.14-.3,2.19-.89,3.17s-1.45,1.74-2.59,2.31c-1.14.57-2.5.86-4.08.86-1.32,0-2.63-.2-3.93-.59-1.3-.39-2.51-.98-3.63-1.78l1.92-3.39c.76.56,1.63,1.02,2.61,1.38.98.36,1.86.54,2.64.54.92,0,1.72-.19,2.4-.58s1.02-1.02,1.02-1.9c0-1.14-1.07-2.13-3.21-2.97-1.26-.5-2.31-.98-3.15-1.44-.84-.46-1.56-1.12-2.17-1.98-.61-.86-.92-1.94-.92-3.24,0-1.9.62-3.43,1.88-4.59,1.25-1.16,2.92-1.79,5-1.89,1.64,0,3.01.19,4.11.56,1.1.37,2.17.9,3.21,1.58l-1.65,3.33c-1.92-1.06-3.59-1.59-5.01-1.59Z" style="fill: #00684f;"/>
      <path d="M299.42,27.99c-.96,0-1.71.19-2.23.57-.53.38-.79.95-.79,1.71,0,.7.38,1.31,1.15,1.84.77.53,1.79,1.04,3.08,1.52,1.04.38,1.93.81,2.67,1.31s1.35,1.17,1.85,2.02c.49.86.73,1.95.73,3.27,0,1.14-.29,2.19-.88,3.17s-1.46,1.74-2.59,2.31-2.5.86-4.08.86c-1.32,0-2.63-.2-3.93-.59-1.3-.39-2.51-.98-3.63-1.78l1.92-3.39c.76.56,1.63,1.02,2.61,1.38.98.36,1.86.54,2.64.54.92,0,1.72-.19,2.4-.58.68-.39,1.02-1.02,1.02-1.9,0-1.14-1.07-2.13-3.21-2.97-1.26-.5-2.31-.98-3.15-1.44-.84-.46-1.57-1.12-2.17-1.98-.61-.86-.92-1.94-.92-3.24,0-1.9.62-3.43,1.88-4.59,1.25-1.16,2.91-1.79,5-1.89,1.64,0,3.01.19,4.11.56,1.1.37,2.17.9,3.21,1.58l-1.65,3.33c-1.92-1.06-3.59-1.59-5.01-1.59Z" style="fill: #00684f;"/>
      <path d="M331.19,24.24v4.2h-10.71v4.71h9.48v4.2h-9.48v4.77h11.13v4.2h-15.48v-22.08h15.06Z" style="fill: #00684f;"/>
    </g>
  </g>
</svg>