<?xml version="1.0" encoding="UTF-8"?>
<svg xmlns="http://www.w3.org/2000/svg" viewBox="0 0 129.99 23.21">
  <g>
    <g>
      <path d="M10.52,8.15c.71.38,1.28.91,1.69,1.6s.62,1.49.62,2.39c0,1.12-.26,2.16-.77,3.12-.51.96-1.25,1.73-2.21,2.3-.96.57-2.07.86-3.35.86-.46,0-.94-.08-1.43-.23-.49-.15-.92-.36-1.29-.62l-.6,5.41H0L1.91,7.87h2.76l.05.87c1.38-.77,2.54-1.15,3.47-1.15.84,0,1.62.19,2.33.56ZM8.1,15.31c.48-.28.84-.66,1.09-1.14.25-.48.38-.98.38-1.52,0-.74-.25-1.34-.76-1.81-.51-.47-1.1-.7-1.77-.7-.52,0-.99.12-1.42.37-.42.25-.82.63-1.18,1.15l-.3,2.46c.43,1.07,1.19,1.61,2.28,1.61.64,0,1.2-.14,1.68-.43Z" style="fill: #eb5c81;"/>
      <path d="M24.09,8.45c.56.56.8,1.28.72,2.17l-.92,7.52h-3.22l.76-6.33c.08-.98-.35-1.47-1.29-1.47-.74,0-1.37.34-1.9,1.03-.53.69-.85,1.58-.98,2.67l-.51,4.09h-3.22L15.75,0h3.15l-1.15,9.57c.44-.6,1.02-1.07,1.71-1.43.7-.35,1.48-.53,2.36-.53.95,0,1.71.28,2.27.84Z" style="fill: #eb5c81;"/>
      <path d="M28.88,17.88c-.85-.36-1.56-.91-2.13-1.66s-.85-1.67-.85-2.77c0-.9.2-1.8.6-2.69s1.05-1.63,1.94-2.23c.9-.6,2.04-.9,3.42-.9.92,0,1.8.2,2.64.59.84.39,1.53.96,2.06,1.71.53.75.79,1.64.79,2.67,0,.8-.18,1.64-.54,2.53-.36.89-.98,1.66-1.86,2.31-.88.65-2.05.98-3.51.98-.86,0-1.71-.18-2.56-.54ZM33.46,14.82c.41-.64.62-1.33.62-2.08,0-.94-.25-1.58-.76-1.94-.51-.36-1.04-.54-1.59-.54-.58,0-1.07.16-1.46.47-.39.31-.68.71-.86,1.17-.18.47-.28.93-.28,1.39,0,.92.25,1.56.76,1.93.51.37,1.05.55,1.63.55.87,0,1.52-.32,1.93-.95Z" style="fill: #eb5c81;"/>
      <path d="M43.93,3.68l-.53,4.37h2.44l-.3,2.51h-2.44l-.92,7.59h-3.22l.92-7.59h-1.56l.3-2.51h1.56l.53-4.37h3.22Z" style="fill: #eb5c81;"/>
      <path d="M48.82,17.88c-.85-.36-1.56-.91-2.13-1.66-.57-.74-.85-1.67-.85-2.77,0-.9.2-1.8.6-2.69.4-.89,1.05-1.63,1.94-2.23.9-.6,2.04-.9,3.42-.9.92,0,1.8.2,2.65.59.84.39,1.53.96,2.06,1.71.53.75.79,1.64.79,2.67,0,.8-.18,1.64-.54,2.53-.36.89-.98,1.66-1.86,2.31-.88.65-2.05.98-3.51.98-.86,0-1.71-.18-2.56-.54ZM53.41,14.82c.41-.64.62-1.33.62-2.08,0-.94-.25-1.58-.76-1.94-.51-.36-1.04-.54-1.59-.54-.58,0-1.07.16-1.46.47-.39.31-.68.71-.86,1.17-.18.47-.28.93-.28,1.39,0,.92.25,1.56.76,1.93.51.37,1.05.55,1.63.55.87,0,1.52-.32,1.93-.95Z" style="fill: #eb5c81;"/>
      <path d="M70.59,8.1l-1.33,10.58c-.11.95-.45,1.77-1.02,2.45-.57.68-1.31,1.2-2.2,1.55-.89.35-1.86.53-2.9.53-.91,0-1.68-.1-2.33-.3-.65-.2-1.17-.43-1.56-.68-.39-.25-.83-.59-1.32-1l2.16-2.21c.46.43.94.77,1.44,1.01.5.24,1.14.37,1.92.37.69,0,1.29-.2,1.82-.61s.82-.97.9-1.69l.16-1.31c-.35.49-.82.89-1.42,1.18-.59.3-1.28.45-2.08.45-.94,0-1.78-.21-2.52-.62-.74-.41-1.33-1.02-1.76-1.81-.43-.79-.64-1.74-.64-2.84,0-.81.22-1.65.67-2.52.44-.87,1.11-1.59,2-2.17.89-.58,1.96-.87,3.2-.87.84,0,1.57.12,2.17.35s1.06.54,1.37.92l.32-.76h2.97ZM66.91,11.82c-.17-.51-.48-.9-.93-1.18s-1-.43-1.64-.43c-.71,0-1.3.15-1.77.46-.48.31-.82.69-1.05,1.14s-.33.9-.33,1.35c0,.84.24,1.5.72,1.96.48.46,1.16.69,2.04.69.52,0,1.01-.13,1.47-.39s.86-.64,1.2-1.13l.3-2.46Z" style="fill: #eb5c81;"/>
      <path d="M75.55,10.33c.34-.55.76-1.04,1.28-1.46s1.04-.74,1.56-.95.99-.32,1.39-.32l-.55,3.22c-.09-.02-.22-.02-.39-.02-.64,0-1.23.17-1.76.51-.53.34-.96.77-1.29,1.3-.33.53-.53,1.07-.59,1.62l-.48,3.93h-3.2l1.22-10.05h2.9l-.09,2.23Z" style="fill: #eb5c81;"/>
      <path d="M91.65,8.1l-1.22,10.05h-3.22l.14-1.24c-1.1,1.01-2.4,1.5-3.89,1.47-.67.02-1.33-.17-1.96-.56s-1.14-.96-1.54-1.71c-.4-.75-.6-1.62-.6-2.62s.25-1.95.74-2.85c.49-.9,1.17-1.64,2.02-2.2.86-.56,1.82-.84,2.9-.84.89,0,1.58.14,2.07.41.49.28.9.65,1.22,1.13l.35-1.03h2.99ZM87.97,11.82c-.12-.49-.39-.88-.8-1.17-.41-.29-.93-.44-1.54-.44-.66,0-1.21.15-1.64.44-.44.29-.76.66-.97,1.1-.21.44-.31.89-.31,1.33,0,.83.23,1.49.7,1.98s1.09.74,1.88.74c.46,0,.9-.13,1.31-.38s.77-.63,1.08-1.14l.3-2.46Z" style="fill: #eb5c81;"/>
      <path d="M102.52,8.15c.71.38,1.28.91,1.69,1.6s.62,1.49.62,2.39c0,1.12-.26,2.16-.77,3.12-.51.96-1.25,1.73-2.21,2.3-.96.57-2.07.86-3.35.86-.46,0-.94-.08-1.43-.23-.49-.15-.92-.36-1.29-.62l-.6,5.41h-3.2l1.91-15.11h2.76l.05.87c1.38-.77,2.54-1.15,3.47-1.15.84,0,1.62.19,2.33.56ZM100.09,15.31c.48-.28.84-.66,1.09-1.14.25-.48.38-.98.38-1.52,0-.74-.25-1.34-.76-1.81-.51-.47-1.1-.7-1.77-.7-.52,0-.99.12-1.42.37-.42.25-.82.63-1.18,1.15l-.3,2.46c.43,1.07,1.19,1.61,2.28,1.61.64,0,1.2-.14,1.68-.43Z" style="fill: #eb5c81;"/>
      <path d="M116.09,8.45c.56.56.8,1.28.72,2.17l-.92,7.52h-3.22l.76-6.33c.08-.98-.35-1.47-1.29-1.47-.74,0-1.37.34-1.9,1.03-.53.69-.85,1.58-.98,2.67l-.51,4.09h-3.22l2.21-18.15h3.15l-1.15,9.57c.44-.6,1.02-1.07,1.71-1.43.7-.35,1.48-.53,2.36-.53.95,0,1.71.28,2.27.84Z" style="fill: #eb5c81;"/>
      <path d="M129.99,8.1l-8.33,14.88h-3.1l3.08-5.36-3.47-9.52h3.61l1.91,5.93,3.4-5.93h2.9Z" style="fill: #eb5c81;"/>
    </g>
  </g>
</svg>